{"asset":{"version":"2.0","generator":"Blockbench 4.12.4 glTF exporter"},"scenes":[{"nodes":[21],"name":"blockbench_export"}],"scene":0,"nodes":[{"translation":[-0.25,-0.3125,0],"name":"cover_left_rotation","mesh":0},{"rotation":[0,0,-1,6.123233995736766e-17],"translation":[-0.1875,0,0],"name":"cover_left_rotation","children":[0]},{"translation":[0.4375,0.3125,0],"name":"cover_left","children":[1]},{"translation":[0.25,-0.3125,0],"name":"cover_right_rotation","mesh":1},{"rotation":[0,0,-1,6.123233995736766e-17],"translation":[0.1875,0,0],"name":"cover_right_rotation","children":[3]},{"translation":[-0.4375,0.3125,0],"name":"cover_right","children":[4]},{"translation":[0,-0.3125,0],"name":"spine_rotation","mesh":2},{"rotation":[-1,0,0,6.123233995736766e-17],"name":"spine_rotation","children":[6]},{"translation":[0,0.3125,0],"name":"book_spine","children":[7]},{"translation":[-0.15625,-0.3125,0.0375],"name":"page_left_rotation","mesh":3},{"rotation":[0,0,-1,6.123233995736766e-17],"translation":[-0.15625,0,0.0296875],"name":"page_left_rotation","children":[9]},{"translation":[0.3125,0.3125,-0.0671875],"name":"pages_left","children":[10]},{"translation":[0.15625,-0.3125,0.0375],"name":"page_right_rotation","mesh":4},{"rotation":[-1,-6.123233995736766e-17,-6.123233995736766e-17,3.749399456654644e-33],"translation":[-0.15625,0,-0.0296875],"name":"page_right_rotation","children":[12]},{"translation":[0,0.3125,-0.0078125],"name":"pages_right","children":[13]},{"translation":[-0.15625,-0.3125,0.13125],"name":"flip_left_rotation","mesh":5},{"rotation":[0,0,-1,6.123233995736766e-17],"translation":[-0.15625,0,-0.0015624999999999944],"name":"flip_left_rotation","children":[15]},{"translation":[0.3125,0.3125,-0.1296875],"name":"flipping_page_left","children":[16]},{"translation":[0.15625,-0.3125,0.13125],"name":"flip_right_rotation","mesh":6},{"rotation":[-1,-6.123233995736766e-17,-6.123233995736766e-17,3.749399456654644e-33],"translation":[-0.15625,0,0.0015624999999999944],"name":"flip_right_rotation","children":[18]},{"translation":[0,0.3125,-0.1328125],"name":"flipping_page_right","children":[19]},{"children":[2,5,8,11,14,17,20]}],"bufferViews":[{"buffer":0,"byteOffset":0,"byteLength":288,"target":34962,"byteStride":12},{"buffer":0,"byteOffset":288,"byteLength":288,"target":34962,"byteStride":12},{"buffer":0,"byteOffset":576,"byteLength":192,"target":34962,"byteStride":8},{"buffer":0,"byteOffset":768,"byteLength":72,"target":34963},{"buffer":0,"byteOffset":840,"byteLength":288,"target":34962,"byteStride":12},{"buffer":0,"byteOffset":1128,"byteLength":288,"target":34962,"byteStride":12},{"buffer":0,"byteOffset":1416,"byteLength":192,"target":34962,"byteStride":8},{"buffer":0,"byteOffset":1608,"byteLength":72,"target":34963},{"buffer":0,"byteOffset":1680,"byteLength":288,"target":34962,"byteStride":12},{"buffer":0,"byteOffset":1968,"byteLength":288,"target":34962,"byteStride":12},{"buffer":0,"byteOffset":2256,"byteLength":192,"target":34962,"byteStride":8},{"buffer":0,"byteOffset":2448,"byteLength":72,"target":34963},{"buffer":0,"byteOffset":2520,"byteLength":288,"target":34962,"byteStride":12},{"buffer":0,"byteOffset":2808,"byteLength":288,"target":34962,"byteStride":12},{"buffer":0,"byteOffset":3096,"byteLength":192,"target":34962,"byteStride":8},{"buffer":0,"byteOffset":3288,"byteLength":72,"target":34963},{"buffer":0,"byteOffset":3360,"byteLength":288,"target":34962,"byteStride":12},{"buffer":0,"byteOffset":3648,"byteLength":288,"target":34962,"byteStride":12},{"buffer":0,"byteOffset":3936,"byteLength":192,"target":34962,"byteStride":8},{"buffer":0,"byteOffset":4128,"byteLength":72,"target":34963},{"buffer":0,"byteOffset":4200,"byteLength":288,"target":34962,"byteStride":12},{"buffer":0,"byteOffset":4488,"byteLength":288,"target":34962,"byteStride":12},{"buffer":0,"byteOffset":4776,"byteLength":192,"target":34962,"byteStride":8},{"buffer":0,"byteOffset":4968,"byteLength":72,"target":34963},{"buffer":0,"byteOffset":5040,"byteLength":288,"target":34962,"byteStride":12},{"buffer":0,"byteOffset":5328,"byteLength":288,"target":34962,"byteStride":12},{"buffer":0,"byteOffset":5616,"byteLength":192,"target":34962,"byteStride":8},{"buffer":0,"byteOffset":5808,"byteLength":72,"target":34963}],"buffers":[{"byteLength":5880,"uri":"data:application/octet-stream;base64,"}],"accessors":[{"bufferView":0,"componentType":5126,"count":24,"max":[0.4375,0.625,0.0000625000029685907],"min":[0.0625,0,0],"type":"VEC3"},{"bufferView":1,"componentType":5126,"count":24,"max":[1,1,1],"min":[-1,-1,-1],"type":"VEC3"},{"bufferView":2,"componentType":5126,"count":24,"max":[0.437255859375,0.31201171875],"min":[0.249755859375,-0.00048828125],"type":"VEC2"},{"bufferView":3,"componentType":5123,"count":36,"max":[23],"min":[0],"type":"SCALAR"},{"bufferView":4,"componentType":5126,"count":24,"max":[-0.0625,0.625,0.0000625000029685907],"min":[-0.4375,0,0],"type":"VEC3"},{"bufferView":5,"componentType":5126,"count":24,"max":[1,1,1],"min":[-1,-1,-1],"type":"VEC3"},{"bufferView":6,"componentType":5126,"count":24,"max":[0.187255859375,0.31201171875],"min":[-0.000244140625,-0.00048828125],"type":"VEC2"},{"bufferView":7,"componentType":5123,"count":36,"max":[23],"min":[0],"type":"SCALAR"},{"bufferView":8,"componentType":5126,"count":24,"max":[0.0625,0.625,0.0000625000029685907],"min":[-0.0625,0,0],"type":"VEC3"},{"bufferView":9,"componentType":5126,"count":24,"max":[1,1,1],"min":[-1,-1,-1],"type":"VEC3"},{"bufferView":10,"componentType":5126,"count":24,"max":[0.249755859375,0.31201171875],"min":[0.187255859375,-0.00048828125],"type":"VEC2"},{"bufferView":11,"componentType":5123,"count":36,"max":[23],"min":[0],"type":"SCALAR"},{"bufferView":12,"componentType":5126,"count":24,"max":[0.3125,0.5625,-0.0062500000931322575],"min":[0,0.0625,-0.06875000149011612],"type":"VEC3"},{"bufferView":13,"componentType":5126,"count":24,"max":[1,1,1],"min":[-1,-1,-1],"type":"VEC3"},{"bufferView":14,"componentType":5126,"count":24,"max":[0.374755859375,0.59326171875],"min":[0.187744140625,0.31298828125],"type":"VEC2"},{"bufferView":15,"componentType":5123,"count":36,"max":[23],"min":[0],"type":"SCALAR"},{"bufferView":16,"componentType":5126,"count":24,"max":[0,0.5625,-0.0062500000931322575],"min":[-0.3125,0.0625,-0.06875000149011612],"type":"VEC3"},{"bufferView":17,"componentType":5126,"count":24,"max":[1,1,1],"min":[-1,-1,-1],"type":"VEC3"},{"bufferView":18,"componentType":5126,"count":24,"max":[0.187255859375,0.59326171875],"min":[0.000244140625,0.31298828125],"type":"VEC2"},{"bufferView":19,"componentType":5123,"count":36,"max":[23],"min":[0],"type":"SCALAR"},{"bufferView":20,"componentType":5126,"count":24,"max":[0.3125,0.5625,-0.13118749856948853],"min":[0,0.0625,-0.13124999403953552],"type":"VEC3"},{"bufferView":21,"componentType":5126,"count":24,"max":[1,1,1],"min":[-1,-1,-1],"type":"VEC3"},{"bufferView":22,"componentType":5126,"count":24,"max":[0.531005859375,0.56201171875],"min":[0.374755859375,0.31201171875],"type":"VEC2"},{"bufferView":23,"componentType":5123,"count":36,"max":[23],"min":[0],"type":"SCALAR"},{"bufferView":24,"componentType":5126,"count":24,"max":[0,0.5625,-0.13118749856948853],"min":[-0.3125,0.0625,-0.13124999403953552],"type":"VEC3"},{"bufferView":25,"componentType":5126,"count":24,"max":[1,1,1],"min":[-1,-1,-1],"type":"VEC3"},{"bufferView":26,"componentType":5126,"count":24,"max":[0.531005859375,0.56201171875],"min":[0.374755859375,0.31201171875],"type":"VEC2"},{"bufferView":27,"componentType":5123,"count":36,"max":[23],"min":[0],"type":"SCALAR"}],"materials":[{"pbrMetallicRoughness":{"metallicFactor":0,"roughnessFactor":1,"baseColorTexture":{"index":0}},"alphaMode":"MASK","alphaCutoff":0.05,"doubleSided":true}],"textures":[{"sampler":0,"source":0,"name":"book"}],"samplers":[{"magFilter":9728,"minFilter":9728,"wrapS":33071,"wrapT":33071}],"images":[{"mimeType":"image/png","uri":"data:image/png;base64,"}],"meshes":[{"primitives":[{"mode":4,"attributes":{"POSITION":0,"NORMAL":1,"TEXCOORD_0":2},"indices":3,"material":0}]},{"primitives":[{"mode":4,"attributes":{"POSITION":4,"NORMAL":5,"TEXCOORD_0":6},"indices":7,"material":0}]},{"primitives":[{"mode":4,"attributes":{"POSITION":8,"NORMAL":9,"TEXCOORD_0":10},"indices":11,"material":0}]},{"primitives":[{"mode":4,"attributes":{"POSITION":12,"NORMAL":13,"TEXCOORD_0":14},"indices":15,"material":0}]},{"primitives":[{"mode":4,"attributes":{"POSITION":16,"NORMAL":17,"TEXCOORD_0":18},"indices":19,"material":0}]},{"primitives":[{"mode":4,"attributes":{"POSITION":20,"NORMAL":21,"TEXCOORD_0":22},"indices":23,"material":0}]},{"primitives":[{"mode":4,"attributes":{"POSITION":24,"NORMAL":25,"TEXCOORD_0":26},"indices":27,"material":0}]}]}