{"asset":{"version":"2.0","generator":"Blockbench 4.12.4 glTF exporter"},"scenes":[{"nodes":[15],"name":"blockbench_export"}],"scene":0,"nodes":[{"translation":[-0.5,-2.3125,0.5],"name":"neck","mesh":0},{"translation":[-0.5,-2.3125,0.5],"name":"neck","mesh":1},{"translation":[0.5,2.3125,-0.5],"name":"neck","children":[0,1]},{"translation":[-0.4375,-1,-0.4375],"name":"top","mesh":2},{"rotation":[-1,0,0,6.123233995736766e-17],"translation":[0.4375,1,0.4375],"name":"top","children":[3]},{"translation":[-0.4375,0,-0.4375],"name":"bottom","mesh":3},{"rotation":[-1,0,0,6.123233995736766e-17],"translation":[0.4375,0,0.4375],"name":"bottom","children":[5]},{"translation":[-0.4375,-1,0.4375],"name":"front","mesh":4},{"translation":[0.4375,1,-0.4375],"name":"front","children":[7]},{"translation":[0.4375,-1,-0.4375],"name":"back","mesh":5},{"rotation":[0,-1,0,6.123233995736766e-17],"translation":[-0.4375,1,0.4375],"name":"back","children":[9]},{"translation":[-0.4375,-1,-0.4375],"name":"left","mesh":6},{"rotation":[0,-0.7071067811865475,0,0.7071067811865476],"translation":[0.4375,1,0.4375],"name":"left","children":[11]},{"translation":[0.4375,-1,0.4375],"name":"right","mesh":7},{"rotation":[0,0.7071067811865475,0,0.7071067811865476],"translation":[-0.4375,1,-0.4375],"name":"right","children":[13]},{"children":[2,4,6,8,10,12,14]}],"bufferViews":[{"buffer":0,"byteOffset":0,"byteLength":288,"target":34962,"byteStride":12},{"buffer":0,"byteOffset":288,"byteLength":288,"target":34962,"byteStride":12},{"buffer":0,"byteOffset":576,"byteLength":192,"target":34962,"byteStride":8},{"buffer":0,"byteOffset":768,"byteLength":72,"target":34963},{"buffer":0,"byteOffset":840,"byteLength":288,"target":34962,"byteStride":12},{"buffer":0,"byteOffset":1128,"byteLength":288,"target":34962,"byteStride":12},{"buffer":0,"byteOffset":1416,"byteLength":192,"target":34962,"byteStride":8},{"buffer":0,"byteOffset":1608,"byteLength":72,"target":34963},{"buffer":0,"byteOffset":1680,"byteLength":288,"target":34962,"byteStride":12},{"buffer":0,"byteOffset":1968,"byteLength":288,"target":34962,"byteStride":12},{"buffer":0,"byteOffset":2256,"byteLength":192,"target":34962,"byteStride":8},{"buffer":0,"byteOffset":2448,"byteLength":24,"target":34963},{"buffer":0,"byteOffset":2472,"byteLength":288,"target":34962,"byteStride":12},{"buffer":0,"byteOffset":2760,"byteLength":288,"target":34962,"byteStride":12},{"buffer":0,"byteOffset":3048,"byteLength":192,"target":34962,"byteStride":8},{"buffer":0,"byteOffset":3240,"byteLength":24,"target":34963},{"buffer":0,"byteOffset":3264,"byteLength":288,"target":34962,"byteStride":12},{"buffer":0,"byteOffset":3552,"byteLength":288,"target":34962,"byteStride":12},{"buffer":0,"byteOffset":3840,"byteLength":192,"target":34962,"byteStride":8},{"buffer":0,"byteOffset":4032,"byteLength":12,"target":34963},{"buffer":0,"byteOffset":4044,"byteLength":288,"target":34962,"byteStride":12},{"buffer":0,"byteOffset":4332,"byteLength":288,"target":34962,"byteStride":12},{"buffer":0,"byteOffset":4620,"byteLength":192,"target":34962,"byteStride":8},{"buffer":0,"byteOffset":4812,"byteLength":12,"target":34963},{"buffer":0,"byteOffset":4824,"byteLength":288,"target":34962,"byteStride":12},{"buffer":0,"byteOffset":5112,"byteLength":288,"target":34962,"byteStride":12},{"buffer":0,"byteOffset":5400,"byteLength":192,"target":34962,"byteStride":8},{"buffer":0,"byteOffset":5592,"byteLength":12,"target":34963},{"buffer":0,"byteOffset":5604,"byteLength":288,"target":34962,"byteStride":12},{"buffer":0,"byteOffset":5892,"byteLength":288,"target":34962,"byteStride":12},{"buffer":0,"byteOffset":6180,"byteLength":192,"target":34962,"byteStride":8},{"buffer":0,"byteOffset":6372,"byteLength":12,"target":34963}],"buffers":[{"byteLength":6384,"uri":"data:application/octet-stream;base64,"}],"accessors":[{"bufferView":0,"componentType":5126,"count":24,"max":[0.20000000298023224,1.0750000476837158,0.20000000298023224],"min":[-0.20000000298023224,0.987500011920929,-0.20000000298023224],"type":"VEC3"},{"bufferView":1,"componentType":5126,"count":24,"max":[1,1,1],"min":[-1,-1,-1],"type":"VEC3"},{"bufferView":2,"componentType":5126,"count":24,"max":[0.75,0.375],"min":[0,0.15625],"type":"VEC2"},{"bufferView":3,"componentType":5123,"count":36,"max":[23],"min":[0],"type":"SCALAR"},{"bufferView":4,"componentType":5126,"count":24,"max":[0.24375000596046448,1.243749976158142,0.24375000596046448],"min":[-0.24375000596046448,1.068750023841858,-0.24375000596046448],"type":"VEC3"},{"bufferView":5,"componentType":5126,"count":24,"max":[1,1,1],"min":[-1,-1,-1],"type":"VEC3"},{"bufferView":6,"componentType":5126,"count":24,"max":[1,0.34375],"min":[0,0],"type":"VEC2"},{"bufferView":7,"componentType":5123,"count":36,"max":[23],"min":[0],"type":"SCALAR"},{"bufferView":8,"componentType":5126,"count":24,"max":[0.4375,1.0000624656677246,1.3125],"min":[-0.4375,1,0.4375],"type":"VEC3"},{"bufferView":9,"componentType":5126,"count":24,"max":[1,1,1],"min":[-1,-1,-1],"type":"VEC3"},{"bufferView":10,"componentType":5126,"count":24,"max":[1,1],"min":[0,0],"type":"VEC2"},{"bufferView":11,"componentType":5123,"count":12,"max":[15],"min":[8],"type":"SCALAR"},{"bufferView":12,"componentType":5126,"count":24,"max":[0.4375,0.0000625000029685907,1.3125],"min":[-0.4375,0,0.4375],"type":"VEC3"},{"bufferView":13,"componentType":5126,"count":24,"max":[1,1,1],"min":[-1,-1,-1],"type":"VEC3"},{"bufferView":14,"componentType":5126,"count":24,"max":[1,1],"min":[0,0],"type":"VEC2"},{"bufferView":15,"componentType":5123,"count":12,"max":[15],"min":[8],"type":"SCALAR"},{"bufferView":16,"componentType":5126,"count":24,"max":[0.4375,1,-0.437437504529953],"min":[-0.4375,0,-0.4375],"type":"VEC3"},{"bufferView":17,"componentType":5126,"count":24,"max":[1,1,1],"min":[-1,-1,-1],"type":"VEC3"},{"bufferView":18,"componentType":5126,"count":24,"max":[1,1],"min":[0,0],"type":"VEC2"},{"bufferView":19,"componentType":5123,"count":6,"max":[23],"min":[20],"type":"SCALAR"},{"bufferView":20,"componentType":5126,"count":24,"max":[-0.4375,1,0.437562495470047],"min":[-1.3125,0,0.4375],"type":"VEC3"},{"bufferView":21,"componentType":5126,"count":24,"max":[1,1,1],"min":[-1,-1,-1],"type":"VEC3"},{"bufferView":22,"componentType":5126,"count":24,"max":[1,1],"min":[0,0],"type":"VEC2"},{"bufferView":23,"componentType":5123,"count":6,"max":[23],"min":[20],"type":"SCALAR"},{"bufferView":24,"componentType":5126,"count":24,"max":[0.4375,1,0.437562495470047],"min":[-0.4375,0,0.4375],"type":"VEC3"},{"bufferView":25,"componentType":5126,"count":24,"max":[1,1,1],"min":[-1,-1,-1],"type":"VEC3"},{"bufferView":26,"componentType":5126,"count":24,"max":[1,1],"min":[0,0],"type":"VEC2"},{"bufferView":27,"componentType":5123,"count":6,"max":[23],"min":[20],"type":"SCALAR"},{"bufferView":28,"componentType":5126,"count":24,"max":[-0.4375,1,-0.437437504529953],"min":[-1.3125,0,-0.4375],"type":"VEC3"},{"bufferView":29,"componentType":5126,"count":24,"max":[1,1,1],"min":[-1,-1,-1],"type":"VEC3"},{"bufferView":30,"componentType":5126,"count":24,"max":[1,1],"min":[0,0],"type":"VEC2"},{"bufferView":31,"componentType":5123,"count":6,"max":[23],"min":[20],"type":"SCALAR"}],"materials":[{"pbrMetallicRoughness":{"metallicFactor":0,"roughnessFactor":1,"baseColorTexture":{"index":0}},"alphaMode":"MASK","alphaCutoff":0.05,"doubleSided":true}],"textures":[{"sampler":0,"source":0,"name":"decorated_pot_base"}],"samplers":[{"magFilter":9728,"minFilter":9728,"wrapS":33071,"wrapT":33071}],"images":[{"mimeType":"image/png","uri":"data:image/png;base64,"}],"meshes":[{"primitives":[{"mode":4,"attributes":{"POSITION":0,"NORMAL":1,"TEXCOORD_0":2},"indices":3,"material":0}]},{"primitives":[{"mode":4,"attributes":{"POSITION":4,"NORMAL":5,"TEXCOORD_0":6},"indices":7,"material":0}]},{"primitives":[{"mode":4,"attributes":{"POSITION":8,"NORMAL":9,"TEXCOORD_0":10},"indices":11,"material":0}]},{"primitives":[{"mode":4,"attributes":{"POSITION":12,"NORMAL":13,"TEXCOORD_0":14},"indices":15,"material":0}]},{"primitives":[{"mode":4,"attributes":{"POSITION":16,"NORMAL":17,"TEXCOORD_0":18},"indices":19,"material":0}]},{"primitives":[{"mode":4,"attributes":{"POSITION":20,"NORMAL":21,"TEXCOORD_0":22},"indices":23,"material":0}]},{"primitives":[{"mode":4,"attributes":{"POSITION":24,"NORMAL":25,"TEXCOORD_0":26},"indices":27,"material":0}]},{"primitives":[{"mode":4,"attributes":{"POSITION":28,"NORMAL":29,"TEXCOORD_0":30},"indices":31,"material":0}]}]}