{"asset":{"version":"2.0","generator":"Blockbench 4.12.4 glTF exporter"},"scenes":[{"nodes":[26],"name":"blockbench_export"}],"scene":0,"nodes":[{"translation":[0,-1.25,0.5],"name":"head","mesh":0},{"translation":[0,-1.25,0.5],"name":"head","mesh":1},{"translation":[0,-1.25,0.5],"name":"head","mesh":2},{"translation":[0,-1.25,0.5],"name":"head","mesh":3},{"translation":[0,-1.5,0.7],"name":"mushroom1","mesh":4},{"translation":[0,-1.5,0.7],"name":"mushroom1","mesh":5},{"rotation":[0,0.28401534470392265,0,0.958819734868193],"translation":[0,0.25,-0.19999999999999996],"name":"mushroom1","children":[4,5]},{"translation":[0,1.25,-0.5],"name":"head","children":[0,1,2,3,6]},{"translation":[0,-1.1875,-0.125],"name":"body","mesh":6},{"translation":[0,-1.1875,-0.125],"name":"body","mesh":7},{"translation":[-0.1265625,-1.5,-0.4875],"name":"mushroom2","mesh":8},{"translation":[-0.1265625,-1.5,-0.4875],"name":"mushroom2","mesh":9},{"rotation":[0,-0.33380685923377096,0,0.9426414910921784],"translation":[0.1265625,0,0.175],"name":"mushroom2","children":[10,11]},{"translation":[0.2,-1.5,-1],"name":"mushroom3","mesh":10},{"translation":[0.2,-1.5,-1],"name":"mushroom3","mesh":11},{"rotation":[0,0.02617694830787315,0,0.9996573249755573],"translation":[-0.2,0,0.6875],"name":"mushroom3","children":[13,14]},{"rotation":[0.7071067811865475,0,0,0.7071067811865476],"translation":[0,0.3125,0.1875],"name":"mushrooms","children":[12,15]},{"rotation":[-0.7071067811865475,0,0,0.7071067811865476],"translation":[0,1.1875,0.125],"name":"body","children":[8,9,16]},{"translation":[-0.25,-0.75,-0.4375],"name":"leg1","mesh":12},{"translation":[0.25,0.75,0.4375],"name":"leg1","children":[18]},{"translation":[0.25,-0.75,-0.4375],"name":"leg2","mesh":13},{"translation":[-0.25,0.75,0.4375],"name":"leg2","children":[20]},{"translation":[-0.25,-0.75,0.375],"name":"leg3","mesh":14},{"translation":[0.25,0.75,-0.375],"name":"leg3","children":[22]},{"translation":[0.25,-0.75,0.375],"name":"leg4","mesh":15},{"translation":[-0.25,0.75,-0.375],"name":"leg4","children":[24]},{"children":[7,17,19,21,23,25]}],"bufferViews":[{"buffer":0,"byteOffset":0,"byteLength":288,"target":34962,"byteStride":12},{"buffer":0,"byteOffset":288,"byteLength":288,"target":34962,"byteStride":12},{"buffer":0,"byteOffset":576,"byteLength":192,"target":34962,"byteStride":8},{"buffer":0,"byteOffset":768,"byteLength":72,"target":34963},{"buffer":0,"byteOffset":840,"byteLength":288,"target":34962,"byteStride":12},{"buffer":0,"byteOffset":1128,"byteLength":288,"target":34962,"byteStride":12},{"buffer":0,"byteOffset":1416,"byteLength":192,"target":34962,"byteStride":8},{"buffer":0,"byteOffset":1608,"byteLength":72,"target":34963},{"buffer":0,"byteOffset":1680,"byteLength":288,"target":34962,"byteStride":12},{"buffer":0,"byteOffset":1968,"byteLength":288,"target":34962,"byteStride":12},{"buffer":0,"byteOffset":2256,"byteLength":192,"target":34962,"byteStride":8},{"buffer":0,"byteOffset":2448,"byteLength":72,"target":34963},{"buffer":0,"byteOffset":2520,"byteLength":288,"target":34962,"byteStride":12},{"buffer":0,"byteOffset":2808,"byteLength":288,"target":34962,"byteStride":12},{"buffer":0,"byteOffset":3096,"byteLength":192,"target":34962,"byteStride":8},{"buffer":0,"byteOffset":3288,"byteLength":72,"target":34963},{"buffer":0,"byteOffset":3360,"byteLength":288,"target":34962,"byteStride":12},{"buffer":0,"byteOffset":3648,"byteLength":288,"target":34962,"byteStride":12},{"buffer":0,"byteOffset":3936,"byteLength":192,"target":34962,"byteStride":8},{"buffer":0,"byteOffset":4128,"byteLength":12,"target":34963},{"buffer":0,"byteOffset":4140,"byteLength":288,"target":34962,"byteStride":12},{"buffer":0,"byteOffset":4428,"byteLength":288,"target":34962,"byteStride":12},{"buffer":0,"byteOffset":4716,"byteLength":192,"target":34962,"byteStride":8},{"buffer":0,"byteOffset":4908,"byteLength":12,"target":34963},{"buffer":0,"byteOffset":4920,"byteLength":288,"target":34962,"byteStride":12},{"buffer":0,"byteOffset":5208,"byteLength":288,"target":34962,"byteStride":12},{"buffer":0,"byteOffset":5496,"byteLength":192,"target":34962,"byteStride":8},{"buffer":0,"byteOffset":5688,"byteLength":72,"target":34963},{"buffer":0,"byteOffset":5760,"byteLength":288,"target":34962,"byteStride":12},{"buffer":0,"byteOffset":6048,"byteLength":288,"target":34962,"byteStride":12},{"buffer":0,"byteOffset":6336,"byteLength":192,"target":34962,"byteStride":8},{"buffer":0,"byteOffset":6528,"byteLength":72,"target":34963},{"buffer":0,"byteOffset":6600,"byteLength":288,"target":34962,"byteStride":12},{"buffer":0,"byteOffset":6888,"byteLength":288,"target":34962,"byteStride":12},{"buffer":0,"byteOffset":7176,"byteLength":192,"target":34962,"byteStride":8},{"buffer":0,"byteOffset":7368,"byteLength":12,"target":34963},{"buffer":0,"byteOffset":7380,"byteLength":288,"target":34962,"byteStride":12},{"buffer":0,"byteOffset":7668,"byteLength":288,"target":34962,"byteStride":12},{"buffer":0,"byteOffset":7956,"byteLength":192,"target":34962,"byteStride":8},{"buffer":0,"byteOffset":8148,"byteLength":12,"target":34963},{"buffer":0,"byteOffset":8160,"byteLength":288,"target":34962,"byteStride":12},{"buffer":0,"byteOffset":8448,"byteLength":288,"target":34962,"byteStride":12},{"buffer":0,"byteOffset":8736,"byteLength":192,"target":34962,"byteStride":8},{"buffer":0,"byteOffset":8928,"byteLength":12,"target":34963},{"buffer":0,"byteOffset":8940,"byteLength":288,"target":34962,"byteStride":12},{"buffer":0,"byteOffset":9228,"byteLength":288,"target":34962,"byteStride":12},{"buffer":0,"byteOffset":9516,"byteLength":192,"target":34962,"byteStride":8},{"buffer":0,"byteOffset":9708,"byteLength":12,"target":34963},{"buffer":0,"byteOffset":9720,"byteLength":288,"target":34962,"byteStride":12},{"buffer":0,"byteOffset":10008,"byteLength":288,"target":34962,"byteStride":12},{"buffer":0,"byteOffset":10296,"byteLength":192,"target":34962,"byteStride":8},{"buffer":0,"byteOffset":10488,"byteLength":72,"target":34963},{"buffer":0,"byteOffset":10560,"byteLength":288,"target":34962,"byteStride":12},{"buffer":0,"byteOffset":10848,"byteLength":288,"target":34962,"byteStride":12},{"buffer":0,"byteOffset":11136,"byteLength":192,"target":34962,"byteStride":8},{"buffer":0,"byteOffset":11328,"byteLength":72,"target":34963},{"buffer":0,"byteOffset":11400,"byteLength":288,"target":34962,"byteStride":12},{"buffer":0,"byteOffset":11688,"byteLength":288,"target":34962,"byteStride":12},{"buffer":0,"byteOffset":11976,"byteLength":192,"target":34962,"byteStride":8},{"buffer":0,"byteOffset":12168,"byteLength":72,"target":34963},{"buffer":0,"byteOffset":12240,"byteLength":288,"target":34962,"byteStride":12},{"buffer":0,"byteOffset":12528,"byteLength":288,"target":34962,"byteStride":12},{"buffer":0,"byteOffset":12816,"byteLength":192,"target":34962,"byteStride":8},{"buffer":0,"byteOffset":13008,"byteLength":72,"target":34963}],"buffers":[{"byteLength":13080,"uri":"data:application/octet-stream;base64,"}],"accessors":[{"bufferView":0,"componentType":5126,"count":24,"max":[0.3125,1.5625,-0.75],"min":[0.25,1.375,-0.8125],"type":"VEC3"},{"bufferView":1,"componentType":5126,"count":24,"max":[1,1,1],"min":[-1,-1,-1],"type":"VEC3"},{"bufferView":2,"componentType":5126,"count":24,"max":[0.40625,0.0625],"min":[0.34375,0],"type":"VEC2"},{"bufferView":3,"componentType":5123,"count":36,"max":[23],"min":[0],"type":"SCALAR"},{"bufferView":4,"componentType":5126,"count":24,"max":[0.25,1.5,-0.5],"min":[-0.25,1,-0.875],"type":"VEC3"},{"bufferView":5,"componentType":5126,"count":24,"max":[1,1,1],"min":[-1,-1,-1],"type":"VEC3"},{"bufferView":6,"componentType":5126,"count":24,"max":[0.4375,0.21875],"min":[0,0],"type":"VEC2"},{"bufferView":7,"componentType":5123,"count":36,"max":[23],"min":[0],"type":"SCALAR"},{"bufferView":8,"componentType":5126,"count":24,"max":[-0.25,1.5625,-0.75],"min":[-0.3125,1.375,-0.8125],"type":"VEC3"},{"bufferView":9,"componentType":5126,"count":24,"max":[1,1,1],"min":[-1,-1,-1],"type":"VEC3"},{"bufferView":10,"componentType":5126,"count":24,"max":[0.40625,0.0625],"min":[0.34375,0],"type":"VEC2"},{"bufferView":11,"componentType":5123,"count":36,"max":[23],"min":[0],"type":"SCALAR"},{"bufferView":12,"componentType":5126,"count":24,"max":[0.1875,1.1875,-0.875],"min":[-0.1875,1,-0.9375],"type":"VEC3"},{"bufferView":13,"componentType":5126,"count":24,"max":[1,1,1],"min":[-1,-1,-1],"type":"VEC3"},{"bufferView":14,"componentType":5126,"count":24,"max":[0.234130859375,0.577880859375],"min":[0.015869140625,0.515869140625],"type":"VEC2"},{"bufferView":15,"componentType":5123,"count":36,"max":[23],"min":[0],"type":"SCALAR"},{"bufferView":16,"componentType":5126,"count":24,"max":[0.5,2.3125,-0.6999375224113464],"min":[-0.5,1.5,-0.699999988079071],"type":"VEC3"},{"bufferView":17,"componentType":5126,"count":24,"max":[1,1,1],"min":[-1,-1,-1],"type":"VEC3"},{"bufferView":18,"componentType":5126,"count":24,"max":[1,1],"min":[0,0],"type":"VEC2"},{"bufferView":19,"componentType":5123,"count":6,"max":[23],"min":[20],"type":"SCALAR"},{"bufferView":20,"componentType":5126,"count":24,"max":[0.0000625000029685907,2.3125,-0.20000000298023224],"min":[0,1.5,-1.2000000476837158],"type":"VEC3"},{"bufferView":21,"componentType":5126,"count":24,"max":[1,1,1],"min":[-1,-1,-1],"type":"VEC3"},{"bufferView":22,"componentType":5126,"count":24,"max":[1,1],"min":[0,0],"type":"VEC2"},{"bufferView":23,"componentType":5123,"count":6,"max":[3],"min":[0],"type":"SCALAR"},{"bufferView":24,"componentType":5126,"count":24,"max":[0.375,1.8125,0.3125],"min":[-0.375,0.6875,-0.3125],"type":"VEC3"},{"bufferView":25,"componentType":5126,"count":24,"max":[1,1,1],"min":[-1,-1,-1],"type":"VEC3"},{"bufferView":26,"componentType":5126,"count":24,"max":[0.96875,0.5],"min":[0.28125,0.0625],"type":"VEC2"},{"bufferView":27,"componentType":5123,"count":36,"max":[23],"min":[0],"type":"SCALAR"},{"bufferView":28,"componentType":5126,"count":24,"max":[0.125,1.0625,-0.3125],"min":[-0.125,0.6875,-0.375],"type":"VEC3"},{"bufferView":29,"componentType":5126,"count":24,"max":[1,1,1],"min":[-1,-1,-1],"type":"VEC3"},{"bufferView":30,"componentType":5126,"count":24,"max":[0.96875,0.109375],"min":[0.8125,0],"type":"VEC2"},{"bufferView":31,"componentType":5123,"count":36,"max":[23],"min":[0],"type":"SCALAR"},{"bufferView":32,"componentType":5126,"count":24,"max":[0.6265624761581421,2.3125,0.48756250739097595],"min":[-0.3734374940395355,1.5,0.48750001192092896],"type":"VEC3"},{"bufferView":33,"componentType":5126,"count":24,"max":[1,1,1],"min":[-1,-1,-1],"type":"VEC3"},{"bufferView":34,"componentType":5126,"count":24,"max":[1,1],"min":[0,0],"type":"VEC2"},{"bufferView":35,"componentType":5123,"count":6,"max":[23],"min":[20],"type":"SCALAR"},{"bufferView":36,"componentType":5126,"count":24,"max":[0.12662500143051147,2.3125,0.987500011920929],"min":[0.12656250596046448,1.5,-0.012500000186264515],"type":"VEC3"},{"bufferView":37,"componentType":5126,"count":24,"max":[1,1,1],"min":[-1,-1,-1],"type":"VEC3"},{"bufferView":38,"componentType":5126,"count":24,"max":[1,1],"min":[0,0],"type":"VEC2"},{"bufferView":39,"componentType":5123,"count":6,"max":[3],"min":[0],"type":"SCALAR"},{"bufferView":40,"componentType":5126,"count":24,"max":[0.30000001192092896,2.3125,1.0000624656677246],"min":[-0.699999988079071,1.5,1],"type":"VEC3"},{"bufferView":41,"componentType":5126,"count":24,"max":[1,1,1],"min":[-1,-1,-1],"type":"VEC3"},{"bufferView":42,"componentType":5126,"count":24,"max":[1,1],"min":[0,0],"type":"VEC2"},{"bufferView":43,"componentType":5123,"count":6,"max":[23],"min":[20],"type":"SCALAR"},{"bufferView":44,"componentType":5126,"count":24,"max":[-0.19993749260902405,2.3125,1.5],"min":[-0.20000000298023224,1.5,0.5],"type":"VEC3"},{"bufferView":45,"componentType":5126,"count":24,"max":[1,1,1],"min":[-1,-1,-1],"type":"VEC3"},{"bufferView":46,"componentType":5126,"count":24,"max":[1,1],"min":[0,0],"type":"VEC2"},{"bufferView":47,"componentType":5123,"count":6,"max":[3],"min":[0],"type":"SCALAR"},{"bufferView":48,"componentType":5126,"count":24,"max":[0.375,0.75,0.5625],"min":[0.125,0,0.3125],"type":"VEC3"},{"bufferView":49,"componentType":5126,"count":24,"max":[1,1,1],"min":[-1,-1,-1],"type":"VEC3"},{"bufferView":50,"componentType":5126,"count":24,"max":[0.25,0.5],"min":[0,0.25],"type":"VEC2"},{"bufferView":51,"componentType":5123,"count":36,"max":[23],"min":[0],"type":"SCALAR"},{"bufferView":52,"componentType":5126,"count":24,"max":[-0.125,0.75,0.5625],"min":[-0.375,0,0.3125],"type":"VEC3"},{"bufferView":53,"componentType":5126,"count":24,"max":[1,1,1],"min":[-1,-1,-1],"type":"VEC3"},{"bufferView":54,"componentType":5126,"count":24,"max":[0.25,0.5],"min":[0,0.25],"type":"VEC2"},{"bufferView":55,"componentType":5123,"count":36,"max":[23],"min":[0],"type":"SCALAR"},{"bufferView":56,"componentType":5126,"count":24,"max":[0.375,0.75,-0.1875],"min":[0.125,0,-0.4375],"type":"VEC3"},{"bufferView":57,"componentType":5126,"count":24,"max":[1,1,1],"min":[-1,-1,-1],"type":"VEC3"},{"bufferView":58,"componentType":5126,"count":24,"max":[0.25,0.5],"min":[0,0.25],"type":"VEC2"},{"bufferView":59,"componentType":5123,"count":36,"max":[23],"min":[0],"type":"SCALAR"},{"bufferView":60,"componentType":5126,"count":24,"max":[-0.125,0.75,-0.1875],"min":[-0.375,0,-0.4375],"type":"VEC3"},{"bufferView":61,"componentType":5126,"count":24,"max":[1,1,1],"min":[-1,-1,-1],"type":"VEC3"},{"bufferView":62,"componentType":5126,"count":24,"max":[0.25,0.5],"min":[0,0.25],"type":"VEC2"},{"bufferView":63,"componentType":5123,"count":36,"max":[23],"min":[0],"type":"SCALAR"}],"materials":[{"pbrMetallicRoughness":{"metallicFactor":0,"roughnessFactor":1,"baseColorTexture":{"index":0}},"alphaMode":"MASK","alphaCutoff":0.05,"doubleSided":true}],"textures":[{"sampler":0,"source":0,"name":"mooshroom_mushrooms"}],"samplers":[{"magFilter":9728,"minFilter":9728,"wrapS":33071,"wrapT":33071}],"images":[{"mimeType":"image/png","uri":"data:image/png;base64,"}],"meshes":[{"primitives":[{"mode":4,"attributes":{"POSITION":0,"NORMAL":1,"TEXCOORD_0":2},"indices":3,"material":0}]},{"primitives":[{"mode":4,"attributes":{"POSITION":4,"NORMAL":5,"TEXCOORD_0":6},"indices":7,"material":0}]},{"primitives":[{"mode":4,"attributes":{"POSITION":8,"NORMAL":9,"TEXCOORD_0":10},"indices":11,"material":0}]},{"primitives":[{"mode":4,"attributes":{"POSITION":12,"NORMAL":13,"TEXCOORD_0":14},"indices":15,"material":0}]},{"primitives":[{"mode":4,"attributes":{"POSITION":16,"NORMAL":17,"TEXCOORD_0":18},"indices":19,"material":0}]},{"primitives":[{"mode":4,"attributes":{"POSITION":20,"NORMAL":21,"TEXCOORD_0":22},"indices":23,"material":0}]},{"primitives":[{"mode":4,"attributes":{"POSITION":24,"NORMAL":25,"TEXCOORD_0":26},"indices":27,"material":0}]},{"primitives":[{"mode":4,"attributes":{"POSITION":28,"NORMAL":29,"TEXCOORD_0":30},"indices":31,"material":0}]},{"primitives":[{"mode":4,"attributes":{"POSITION":32,"NORMAL":33,"TEXCOORD_0":34},"indices":35,"material":0}]},{"primitives":[{"mode":4,"attributes":{"POSITION":36,"NORMAL":37,"TEXCOORD_0":38},"indices":39,"material":0}]},{"primitives":[{"mode":4,"attributes":{"POSITION":40,"NORMAL":41,"TEXCOORD_0":42},"indices":43,"material":0}]},{"primitives":[{"mode":4,"attributes":{"POSITION":44,"NORMAL":45,"TEXCOORD_0":46},"indices":47,"material":0}]},{"primitives":[{"mode":4,"attributes":{"POSITION":48,"NORMAL":49,"TEXCOORD_0":50},"indices":51,"material":0}]},{"primitives":[{"mode":4,"attributes":{"POSITION":52,"NORMAL":53,"TEXCOORD_0":54},"indices":55,"material":0}]},{"primitives":[{"mode":4,"attributes":{"POSITION":56,"NORMAL":57,"TEXCOORD_0":58},"indices":59,"material":0}]},{"primitives":[{"mode":4,"attributes":{"POSITION":60,"NORMAL":61,"TEXCOORD_0":62},"indices":63,"material":0}]}]}